<svg width="169" height="34" viewBox="0 0 169 34" fill="none" xmlns="http://www.w3.org/2000/svg">
<rect width="169" height="34" fill="#E5E5E5"/>
<g clip-path="url(#clip0_0_1)">
<rect width="1920" height="1487" transform="translate(-876 -1217)" fill="white"/>
<g clip-path="url(#clip1_0_1)">
<path d="M136.328 15.6719H164.455L159.796 11.0351C159.276 10.5177 159.274 9.67678 159.791 9.15689C160.309 8.63693 161.15 8.635 161.67 9.15237L168.609 16.0586C168.61 16.059 168.61 16.0595 168.611 16.0599C169.129 16.5773 169.131 17.4209 168.611 17.9401C168.61 17.9405 168.61 17.941 168.609 17.9414L161.67 24.8476C161.15 25.3649 160.309 25.3631 159.791 24.8431C159.274 24.3232 159.276 23.4823 159.796 22.9648L164.455 18.3281H136.328C135.595 18.3281 135 17.7335 135 17C135 16.2665 135.595 15.6719 136.328 15.6719Z" fill="#E1E1E1"/>
</g>
<g clip-path="url(#clip2_0_1)">
<path d="M32.6718 15.6719H4.54493L9.20426 11.0351C9.72416 10.5177 9.72615 9.67678 9.20871 9.15689C8.69127 8.63693 7.8503 8.635 7.33041 9.15237L0.390691 16.0586C0.390226 16.059 0.389894 16.0595 0.389496 16.0599C-0.129071 16.5773 -0.130731 17.4209 0.389363 17.9401C0.389828 17.9405 0.39016 17.941 0.390558 17.9414L7.33028 24.8476C7.85011 25.3649 8.69107 25.3631 9.20858 24.8431C9.72602 24.3232 9.72402 23.4823 9.20413 22.9648L4.54493 18.3281H32.6718C33.4054 18.3281 34 17.7335 34 17C34 16.2665 33.4054 15.6719 32.6718 15.6719Z" fill="#E1E1E1"/>
</g>
<path d="M72.034 21.488H74.77V13.118L74.986 12.02L74.194 12.92L72.052 14.36L71.296 13.298L75.634 10.184H76.426V21.488H79.126V23H72.034V21.488Z" fill="#364844"/>
<path d="M87.1675 10.184L88.4995 10.796L81.3175 25.52L80.0035 24.872L87.1675 10.184ZM98.1922 19.202H95.8882V23H94.2322V19.202H88.1662V18.446L94.6822 10.22H95.8882V17.798H98.1922V19.202ZM94.2322 14.144L94.3942 12.704H94.3402L93.6742 13.874L91.0102 17.096L90.0562 17.942L91.4062 17.798H94.2322V14.144Z" fill="#C0C0C0"/>
</g>
<defs>
<clipPath id="clip0_0_1">
<rect width="1920" height="1487" fill="white" transform="translate(-876 -1217)"/>
</clipPath>
<clipPath id="clip1_0_1">
<rect width="34" height="34" fill="white" transform="matrix(-1 0 0 1 169 0)"/>
</clipPath>
<clipPath id="clip2_0_1">
<rect width="34" height="34" fill="white"/>
</clipPath>
</defs>
</svg>
